<svg width="876" height="604" viewBox="0 0 876 604" fill="none" xmlns="http://www.w3.org/2000/svg">
<g filter="url(#filter0_i_5_38)">
<path d="M450.107 453.058C429.591 527.404 390.006 588.848 342.667 628.107C295.323 667.37 240.346 684.362 188.897 670.165C137.449 655.967 98.9684 613.184 78.4609 555.198C57.9555 497.216 55.4849 424.168 76.0012 349.821C96.5175 275.475 136.102 214.032 183.441 174.773C230.785 135.51 285.761 118.518 337.21 132.715C388.659 146.913 427.14 189.695 447.647 247.682C468.152 305.664 470.623 378.712 450.107 453.058Z" stroke="url(#paint0_linear_5_38)" stroke-width="3"/>
</g>
<g filter="url(#filter1_i_5_38)">
<path d="M393.314 437.96C431.29 505.708 485.011 556.275 541.234 583.225C597.452 610.173 656.308 613.557 704.326 586.641C752.344 559.725 780.17 507.752 786.518 445.732C792.866 383.707 777.763 311.493 739.787 243.745C701.812 175.998 648.09 125.431 591.867 98.4807C535.649 71.5325 476.793 68.1492 428.775 95.0655C380.757 121.982 352.931 173.954 346.583 235.974C340.235 297.998 355.338 370.212 393.314 437.96Z" stroke="url(#paint1_linear_5_38)" stroke-width="3"/>
</g>
<defs>
<filter id="filter0_i_5_38" x="60.2925" y="126.256" width="405.523" height="554.367" filterUnits="userSpaceOnUse" color-interpolation-filters="sRGB">
<feFlood flood-opacity="0" result="BackgroundImageFix"/>
<feBlend mode="normal" in="SourceGraphic" in2="BackgroundImageFix" result="shape"/>
<feColorMatrix in="SourceAlpha" type="matrix" values="0 0 0 0 0 0 0 0 0 0 0 0 0 0 0 0 0 0 127 0" result="hardAlpha"/>
<feOffset dy="4"/>
<feGaussianBlur stdDeviation="2"/>
<feComposite in2="hardAlpha" operator="arithmetic" k2="-1" k3="1"/>
<feColorMatrix type="matrix" values="0 0 0 0 0.949109 0 0 0 0 0.215206 0 0 0 0 0.964086 0 0 0 1 0"/>
<feBlend mode="normal" in2="shape" result="effect1_innerShadow_5_38"/>
</filter>
<filter id="filter1_i_5_38" x="343.679" y="74.9934" width="445.743" height="535.719" filterUnits="userSpaceOnUse" color-interpolation-filters="sRGB">
<feFlood flood-opacity="0" result="BackgroundImageFix"/>
<feBlend mode="normal" in="SourceGraphic" in2="BackgroundImageFix" result="shape"/>
<feColorMatrix in="SourceAlpha" type="matrix" values="0 0 0 0 0 0 0 0 0 0 0 0 0 0 0 0 0 0 127 0" result="hardAlpha"/>
<feOffset dy="4"/>
<feGaussianBlur stdDeviation="2"/>
<feComposite in2="hardAlpha" operator="arithmetic" k2="-1" k3="1"/>
<feColorMatrix type="matrix" values="0 0 0 0 0.949109 0 0 0 0 0.215206 0 0 0 0 0.964086 0 0 0 1 0"/>
<feBlend mode="normal" in2="shape" result="effect1_innerShadow_5_38"/>
</filter>
<linearGradient id="paint0_linear_5_38" x1="74.4203" y1="349.911" x2="702.75" y2="523.303" gradientUnits="userSpaceOnUse">
<stop stop-color="#F237F6"/>
<stop offset="0.151" stop-color="#F237F6" stop-opacity="0"/>
</linearGradient>
<linearGradient id="paint1_linear_5_38" x1="738.727" y1="244.921" x2="165.633" y2="566.168" gradientUnits="userSpaceOnUse">
<stop stop-color="#F237F6"/>
<stop offset="0.131" stop-color="#F237F6" stop-opacity="0"/>
</linearGradient>
</defs>
</svg>
